<svg width="70" height="70" viewBox="0 0 70 70" fill="none" xmlns="http://www.w3.org/2000/svg">
<circle cx="35" cy="35" r="33.5" fill="#2C2923" stroke="url(#paint0_linear)" stroke-width="3"/>
<mask id="mask0" mask-type="alpha" maskUnits="userSpaceOnUse" x="10" y="22" width="49" height="27">
<line x1="15.7131" y1="24.4508" x2="11.8279" y2="24.4508" stroke="black" stroke-width="3" stroke-linecap="round"/>
<line x1="23.7459" y1="30.1885" x2="19.8607" y2="30.1885" stroke="black" stroke-width="3" stroke-linecap="round"/>
<line x1="47.8443" y1="30.1885" x2="43.9591" y2="30.1885" stroke="black" stroke-width="3" stroke-linecap="round"/>
<line x1="39.8115" y1="35.9262" x2="35.9262" y2="35.9262" stroke="black" stroke-width="3" stroke-linecap="round"/>
<line x1="47.8443" y1="35.9262" x2="43.9591" y2="35.9262" stroke="black" stroke-width="3" stroke-linecap="round"/>
<line x1="15.7131" y1="30.1885" x2="11.8279" y2="30.1885" stroke="black" stroke-width="3" stroke-linecap="round"/>
<line x1="47.8443" y1="41.6639" x2="43.9591" y2="41.6639" stroke="black" stroke-width="3" stroke-linecap="round"/>
<line x1="57.0246" y1="30.1885" x2="53.1394" y2="30.1885" stroke="black" stroke-width="3" stroke-linecap="round"/>
<line x1="15.7131" y1="35.9262" x2="11.8279" y2="35.9262" stroke="black" stroke-width="3" stroke-linecap="round"/>
<line x1="23.7459" y1="35.9262" x2="19.8607" y2="35.9262" stroke="black" stroke-width="3" stroke-linecap="round"/>
<line x1="57.0246" y1="35.9262" x2="53.1394" y2="35.9262" stroke="black" stroke-width="3" stroke-linecap="round"/>
<line x1="39.8115" y1="41.6639" x2="35.9262" y2="41.6639" stroke="black" stroke-width="3" stroke-linecap="round"/>
<line x1="31.7787" y1="41.6639" x2="27.8934" y2="41.6639" stroke="black" stroke-width="3" stroke-linecap="round"/>
<line x1="15.7131" y1="41.6639" x2="11.8279" y2="41.6639" stroke="black" stroke-width="3" stroke-linecap="round"/>
<line x1="23.7459" y1="41.6639" x2="19.8607" y2="41.6639" stroke="black" stroke-width="3" stroke-linecap="round"/>
<line x1="57.0246" y1="41.6639" x2="53.1394" y2="41.6639" stroke="black" stroke-width="3" stroke-linecap="round"/>
<line x1="15.7131" y1="47.4016" x2="11.8279" y2="47.4016" stroke="black" stroke-width="3" stroke-linecap="round"/>
<line x1="23.7459" y1="47.4016" x2="19.8607" y2="47.4016" stroke="black" stroke-width="3" stroke-linecap="round"/>
<line x1="57.0246" y1="47.4016" x2="53.1394" y2="47.4016" stroke="black" stroke-width="3" stroke-linecap="round"/>
<line x1="31.7787" y1="47.4016" x2="27.8934" y2="47.4016" stroke="black" stroke-width="3" stroke-linecap="round"/>
<line x1="47.8443" y1="47.4016" x2="43.9591" y2="47.4016" stroke="black" stroke-width="3" stroke-linecap="round"/>
<line x1="39.8115" y1="47.4016" x2="35.9262" y2="47.4016" stroke="black" stroke-width="3" stroke-linecap="round"/>
</mask>
<g mask="url(#mask0)">
<path d="M4.59015 11.4754H64.2623V60.2459H4.59015V11.4754Z" fill="url(#paint1_linear)"/>
</g>
<defs>
<linearGradient id="paint0_linear" x1="35" y1="0" x2="35" y2="70" gradientUnits="userSpaceOnUse">
<stop stop-color="#FBD32E"/>
<stop offset="1" stop-color="#EF0DF3"/>
</linearGradient>
<linearGradient id="paint1_linear" x1="34.4262" y1="11.4754" x2="34.4262" y2="60.2459" gradientUnits="userSpaceOnUse">
<stop stop-color="#FBD32E"/>
<stop offset="1" stop-color="#EF0DF3"/>
</linearGradient>
</defs>
</svg>
